<?xml version="1.0" encoding="UTF-8"?>
<svg width="190mm" height="70mm" version="1.1" viewBox="0 0 190 70" xmlns="http://www.w3.org/2000/svg" xmlns:cc="http://creativecommons.org/ns#" xmlns:dc="http://purl.org/dc/elements/1.1/" xmlns:rdf="http://www.w3.org/1999/02/22-rdf-syntax-ns#">
<metadata>
<rdf:RDF>
<cc:Work rdf:about="">
<dc:format>image/svg+xml</dc:format>
<dc:type rdf:resource="http://purl.org/dc/dcmitype/StillImage"/>
<dc:title/>
</cc:Work>
</rdf:RDF>
</metadata>
<g transform="translate(0,-227)">
<g transform="translate(0,227)">
<path d="m0 0.5v-0.5h79v0.5q0 0.5 0 1t-0.5 0.5-1 0-1 0-1 0-1 0-0.5 0.5 0 1 0 1 0 1 0 1 0 1 0.5 0.5 1 0 1 0 0.5 0.5 0 1 0 1 0 1 0 1 0 1 0 1 0 1 0.5 0.5 1 0 0.5 0.5 0 1 0 1 0 1 0 1 0 1 0 1 0 1 0.5 0.5 1 0 1 0 0.5 0.5 0 1 0 1 0 1 0 1 0 1 0 1 0 1 0.5 0.5 1 0 0.5 0.5 0 1 0 1 0 1 0 1 0 1 0 1 0 1 0.5 0.5 1 0 1 0 1 0 1 0 1 0 0.5-0.5 0-1 0-1 0-1 0-1 0-1 0-1 0-1 0-1 0-1 0-1 0-1-0.5-0.5-1 0-0.5-0.5 0-1 0-1 0-1 0-1-0.5-0.5-1 0-1 0-0.5-0.5 0-1 0-1 0-1 0-1 0-1 0-1 0-1-0.5-0.5-1 0-0.5-0.5 0-1 0-1 0-1 0-1 0-1 0.5-0.5 1 0 1 0 1 0 0.5 0.5 0 1 0 1 0 1 0 1 0.5 0.5 1 0 1 0 0.5 0.5 0 1 0.5 0.5 1 0 0.5 0.5 0 1 0 1 0.5 0.5 1 0 1 0 0.5 0.5 0 1 0 1 0 1 0 1 0 1 0 1 0 1 0.5 0.5 1 0 0.5 0.5 0 1 0 1 0 1 0 1 0 1 0 1 0 1 0 1 0 1 0 1 0 1 0 1 0 1 0 1 0.5 0.5 1 0 1 0 1 0 1 0 1 0 1 0 1 0 1 0 1 0 1 0 1 0 1 0 1 0 1 0 1 0 1 0 1 0 1 0 1 0 1 0 1 0 1 0 1 0 1 0 1 0 1 0 1 0 1 0 0.5-0.5 0-1 0-1 0-1 0-1 0-1 0-1 0-1 0-1 0-1 0-1 0-1 0-1 0-1 0-1 0-1 0-1 0-1 0-1 0-1 0-1 0-1 0-1 0-1 0-1 0-1 0-1 0-1 0-1 0-1 0-1 0-1 0-1 0-1 0-1 0-1 0-1-0.5-0.5-1 0-1 0-1 0-1 0-1 0-1 0-1 0-0.5-0.5 0-1 0-1-0.5-0.5-1 0-1 0-1 0-1 0-1 0-1 0-1 0-1 0-1 0-0.5-0.5 0-1v-0.5h61v0.5q0 0.5 0 1t-0.5 0.5-1 0-1 0-1 0-1 0-1 0-1 0-1 0-1 0-1 0-1 0-1 0-1 0-1 0-1 0-0.5 0.5 0 1 0 1-0.5 0.5-1 0-1 0-1 0-1 0-1 0-0.5 0.5 0 1 0 1 0 1 0 1 0 1 0 1 0 1 0 1 0 1 0 1 0 1 0 1 0 1 0 1 0 1 0 1 0 1 0 1 0 1 0 1 0 1 0 1 0 1 0 1 0 1 0 1 0 1 0 1 0 1 0 1 0 1 0 1 0 1 0 1 0 1 0 1 0.5 0.5 1 0 1 0 1 0 1 0 1 0 1 0 1 0 1 0 1 0 1 0 1 0 1 0 1 0 1 0 1 0 1 0 1 0 1 0 1 0 1 0 1 0 1 0 1 0 1 0 1 0 1 0 1 0 1 0 1 0 1 0 1 0 0.5-0.5 0-1 0-1 0-1 0-1 0-1 0-1 0-1 0-1 0-1 0.5-0.5 1 0 1 0 0.5-0.5 0-1 0-1 0-1 0-1 0.5-0.5 1 0 0.5-0.5 0-1 0-1 0-1 0-1 0-1 0-1 0-1 0.5-0.5 1 0 1 0 0.5-0.5 0-1 0-1 0-1 0-1 0.5-0.5 1 0h0.5v56h-15v-0.5q0-0.5 0-1t0.5-0.5 1 0 1 0 0.5-0.5 0-1 0-1 0.5-0.5 1 0 0.5-0.5 0-1 0-1 0.5-0.5 1 0 1 0 0.5-0.5 0-1 0-1-0.5-0.5-1 0-1 0-1 0-1 0-1 0-1 0-0.5 0.5 0 1 0 1-0.5 0.5-1 0-0.5 0.5 0 1-0.5 0.5-1 0-1 0-1 0-0.5-0.5 0-1 0-1 0-1 0-1 0-1 0-1 0.5-0.5 1 0 1 0 1 0 1 0 1 0 1 0 1 0 1 0 1 0 1 0 1 0 1 0 0.5-0.5 0-1 0-1-0.5-0.5-1 0-1 0-1 0-1 0-1 0-1 0-1 0-1 0-1 0-1 0-1 0-1 0-0.5-0.5 0-1 0-1 0-1 0.5-0.5 1 0 1 0 1 0 0.5 0.5 0 1 0.5 0.5 1 0 1 0 1 0 1 0 1 0 0.5-0.5 0-1 0-1-0.5-0.5-1 0-0.5-0.5 0-1 0.5-0.5 1 0 0.5-0.5 0-1 0-1-0.5-0.5-1 0-1 0-1 0-0.5 0.5 0 1-0.5 0.5-1 0-1 0-1 0-0.5-0.5 0-1-0.5-0.5-1 0-1 0-1 0-1 0-1 0-1 0-1 0-1 0-1 0-1 0-0.5 0.5 0 1-0.5 0.5-1 0-1 0-1 0-1 0-0.5 0.5 0 1 0 1-0.5 0.5-1 0-0.5 0.5 0 1-0.5 0.5-1 0-1 0-0.5 0.5 0 1 0 1 0 1 0 1 0 1 0 1 0 1 0 1 0 1 0 1 0.5 0.5 1 0 1 0h0.5v0.5q0 0.5 0 1t0 1 0.5 0.5 1 0 0.5 0.5 0 1 0 1 0.5 0.5 1 0 0.5 0.5 0 1v0.5h-35v-0.5q0-0.5 0-1t0.5-0.5 1 0 1 0 0.5-0.5 0-1 0-1 0.5-0.5 1 0 1 0 0.5-0.5 0-1 0-1-0.5-0.5-1 0-1 0-1 0-1 0-1 0-0.5 0.5 0 1-0.5 0.5-1 0-0.5 0.5-0.5 0.5-1 0-0.5-0.5 0-1 0-1 0-1 0-1 0.5-0.5 1 0 1 0 1 0 1 0 1 0 1 0 1 0 1 0 1 0 1 0 1 0 0.5-0.5 0-1 0-1-0.5-0.5-1 0-1 0-1 0-1 0-1 0-1 0-1 0-1 0-1 0-1 0-1 0-1 0-0.5-0.5 0-1 0-1 0-1 0-1 0-1 0-1 0.5-0.5 1 0 1 0 1 0 1 0 0.5 0.5 0 1 0.5 0.5 1 0 0.5 0.5 0 1 0 1 0.5 0.5 1 0 1 0 1 0 1 0 1 0 1 0 0.5-0.5 0-1 0-1 0.5-0.5 1 0 1 0 0.5 0.5 0 1 0 1 0 1 0 1 0 1 0 1 0 1 0.5 0.5 1 0 1 0 1 0 1 0 1 0 1 0 1 0 1 0 0.5-0.5 0-1 0-1 0-1 0-1 0-1 0-1 0-1 0.5-0.5 1 0 1 0 1 0 1 0 0.5-0.5 0-1 0-1 0-1 0-1 0.5-0.5 1 0 1 0 1 0 1 0 0.5-0.5 0-1 0-1-0.5-0.5-1 0-1 0-1 0-1 0-1 0-1 0-1 0-1 0-1 0-1 0-1 0-1 0-1 0-1 0-1 0-1 0-1 0-1 0-1 0-1 0-1 0-1 0-1 0-1 0-1 0-1 0-1 0-1 0-0.5 0.5 0 1-0.5 0.5-1 0-1 0-1 0-0.5-0.5 0-1-0.5-0.5-1 0-1 0-1 0-1 0-1 0-1 0-1 0-1 0-1 0-1 0-0.5 0.5 0 1-0.5 0.5-1 0-1 0-1 0-1 0-0.5 0.5 0 1 0 1-0.5 0.5-1 0-1 0-0.5 0.5 0 1 0 1-0.5 0.5-1 0-0.5 0.5 0 1 0 1 0 1 0 1 0 1 0 1 0 1 0 1 0 1 0.5 0.5 1 0 0.5 0.5 0 1 0 1 0.5 0.5 1 0 1 0 0.5 0.5 0 1 0 1 0.5 0.5 1 0 0.5 0.5 0 1v0.5h-45v-0.5q0-0.5 0-1t0-1 0-1 0-1 0-1 0-1 0-1 0-1 0-1 0-1 0-1 0-1 0-1 0-1 0.5-0.5 1 0 1 0 0.5-0.5 0-1 0-1 0.5-0.5 1 0 0.5-0.5 0-1 0.5-0.5 1 0 1 0 1 0 1 0 1 0 1 0 1 0 1 0 1 0 1 0 1 0 1 0 1 0 1 0 1 0 1 0 1 0 1 0 1 0 1 0 1 0 0.5 0.5-0.5 0.5-1 0-1 0-1 0-1 0-0.5 0.5 0 1 0 1 0 1 0 1 0 1 0.5 0.5 1 0 1 0 1 0 1 0 0.5 0.5 0 1 0 1 0.5 0.5 1 0 1 0 1 0 0.5-0.5 0-1 0-1 0-1 0-1 0-1 0-1 0-1 0.5-0.5 1 0 1 0 1 0 1 0 0.5-0.5 0-1 0-1 0-1 0-1 0.5-0.5 1 0 1 0 1 0 1 0 0.5-0.5 0-1 0-1-0.5-0.5-1 0-1 0-1 0-1 0-1 0-1 0-1 0-1 0-1 0-1 0-1 0-1 0-1 0-1 0-0.5-0.5 0-1 0-1-0.5-0.5-1 0-1 0-1 0-0.5 0.5 0 1 0 1 0 1 0 1-0.5 0.5-1 0-1 0-1 0-1 0-1 0-1 0-1 0-1 0-1 0-1 0-1 0-1 0-1 0-1 0-1 0-1 0-0.5-0.5 0-1 0-1 0-1 0-1-0.5-0.5-1 0-0.5-0.5 0-1 0-1-0.5-0.5-1 0-1 0-0.5-0.5 0-1-0.5-0.5-1 0-1 0-1 0-1 0-1 0-1 0-1 0-1 0-1 0-1 0-1 0-1 0-1 0-1 0-1 0-1 0-1 0-1 0-1 0-1 0-1 0-1 0-1 0-1 0-1 0-0.5-0.5 0-1 0-1-0.5-0.5-1 0-1 0-1 0-1 0-1 0-1 0-1 0-0.5 0.5 0 1 0 1-0.5 0.5-1 0-1 0-1 0-1 0-1 0-1 0-0.5-0.5 0.5-0.5 1 0 1 0 0.5-0.5 0-1 0-1 0-1-0.5-0.5-1 0-1 0-0.5-0.5 0-1 0-1-0.5-0.5-1 0-1 0-1 0-1 0-1 0-0.5 0.5 0 1 0 1 0 1 0.5 0.5 1 0 1 0 0.5 0.5-0.5 0.5-1 0-1 0-1 0-1 0-1 0-1 0-1 0-1 0-1 0-0.5-0.5 0-1-0.5-0.5-1 0-1 0-1 0-1 0-1 0-1 0-1 0h-0.5v-30.5m146.5 41.5q0.5 0 0.5-0.5t0-1 0-1 0-1 0-1 0-1 0-1 0-1 0-1 0-1 0-1 0-1 0-1 0-1 0-1 0-1 0-1 0-1 0-1 0-1 0-1 0-1 0-1 0-1 0-1 0-1 0-1 0-1 0-1 0-1 0-1 0-1 0-1 0-1 0-1-0.5-0.5-1 0-1 0-0.5-0.5 0-1-0.5-0.5-1 0-1 0-1 0-1 0-1 0-1 0-1 0-1 0-1 0-1 0-1 0-1 0-1 0-0.5 0.5 0 1-0.5 0.5-1 0-0.5 0.5 0 1 0 1 0 1 0 1 0 1 0 1 0 1 0 1 0 1 0 1 0 1 0 1 0 1 0 1 0 1 0 1 0 1 0 1 0 1 0 1 0 1 0 1 0 1 0 1 0 1 0 1 0 1 0 1 0 1 0 1 0 1 0 1 0 1 0 1 0.5 0.5 1 0 1 0 1 0 1 0 1 0 1 0 1 0 1 0 1 0 1 0 1 0 1 0 1 0 1 0 1 0 1 0 1 0 1 0" fill-opacity="0"/>
<path d="m79 0.5v-0.5h29v0.5q0 0.5 0 1t0.5 0.5 1 0 1 0 1 0 1 0 1 0 1 0 1 0 1 0 1 0 0.5 0.5 0 1 0 1 0.5 0.5 1 0 1 0 1 0 1 0 1 0 1 0 1 0 0.5 0.5 0 1 0 1 0 1 0 1 0 1 0 1 0 1 0 1 0 1 0 1 0 1 0 1 0 1 0 1 0 1 0 1 0 1 0 1 0 1 0 1 0 1 0 1 0 1 0 1 0 1 0 1 0 1 0 1 0 1 0 1 0 1 0 1 0 1 0 1 0 1 0 1-0.5 0.5-1 0-1 0-1 0-1 0-1 0-1 0-1 0-1 0-1 0-1 0-1 0-1 0-1 0-1 0-1 0-1 0-1 0-1 0-1 0-1 0-1 0-1 0-1 0-1 0-1 0-1 0-1 0-1 0-0.5-0.5 0-1 0-1 0-1 0-1 0-1 0-1 0-1 0-1 0-1 0-1 0-1 0-1 0-1 0-1-0.5-0.5-1 0-0.5-0.5 0-1 0-1 0-1 0-1 0-1 0-1 0-1-0.5-0.5-1 0-1 0-0.5-0.5 0-1 0-1-0.5-0.5-1 0-0.5-0.5 0-1-0.5-0.5-1 0-1 0-0.5-0.5 0-1 0-1 0-1 0-1-0.5-0.5-1 0-1 0-1 0-0.5 0.5 0 1 0 1 0 1 0 1 0 1 0.5 0.5 1 0 0.5 0.5 0 1 0 1 0 1 0 1 0 1 0 1 0 1 0.5 0.5 1 0 1 0 0.5 0.5 0 1 0 1 0 1 0 1 0.5 0.5 1 0 0.5 0.5 0 1 0 1 0 1 0 1 0 1 0 1 0 1 0 1 0 1 0 1 0 1-0.5 0.5-1 0-1 0-1 0-1 0-1 0-0.5-0.5 0-1 0-1 0-1 0-1 0-1 0-1 0-1-0.5-0.5-1 0-0.5-0.5 0-1 0-1 0-1 0-1 0-1 0-1 0-1-0.5-0.5-1 0-1 0-0.5-0.5 0-1 0-1 0-1 0-1 0-1 0-1 0-1-0.5-0.5-1 0-0.5-0.5 0-1 0-1 0-1 0-1 0-1 0-1 0-1-0.5-0.5-1 0-1 0-0.5-0.5 0-1 0-1 0-1 0-1 0-1 0.5-0.5 1 0 1 0 1 0 1 0 0.5-0.5 0-1"/>
<path d="m169 0.5v-0.5h19v0.5q0 0.5 0 1t0.5 0.5 1 0h0.5v12h-0.5q-0.5 0-1 0t-0.5 0.5 0 1 0 1 0 1 0 1-0.5 0.5-1 0-1 0-0.5 0.5 0 1 0 1 0 1 0 1 0 1 0 1 0 1-0.5 0.5-1 0-0.5 0.5 0 1 0 1 0 1 0 1-0.5 0.5-1 0-1 0-0.5 0.5 0 1 0 1 0 1 0 1 0 1 0 1 0 1 0 1 0 1-0.5 0.5-1 0-1 0-1 0-1 0-1 0-1 0-1 0-1 0-1 0-1 0-1 0-1 0-1 0-1 0-1 0-1 0-1 0-1 0-1 0-1 0-1 0-1 0-1 0-1 0-1 0-1 0-1 0-1 0-1 0-1 0-1 0-0.5-0.5 0-1 0-1 0-1 0-1 0-1 0-1 0-1 0-1 0-1 0-1 0-1 0-1 0-1 0-1 0-1 0-1 0-1 0-1 0-1 0-1 0-1 0-1 0-1 0-1 0-1 0-1 0-1 0-1 0-1 0-1 0-1 0-1 0-1 0-1 0-1 0-1 0.5-0.5 1 0 1 0 1 0 1 0 1 0 0.5-0.5 0-1 0-1 0.5-0.5 1 0 1 0 1 0 1 0 1 0 1 0 1 0 1 0 1 0 1 0 1 0 1 0 1 0 1 0 0.5-0.5 0-1"/>
<path d="m188 0.5v-0.5h2v2h-0.5q-0.5 0-1 0t-0.5-0.5 0-1" fill-opacity="0"/>
<path d="m130 5.5q0-0.5 0.5-0.5t1 0 1 0 1 0 1 0 1 0 1 0 1 0 1 0 1 0 1 0 1 0 1 0 1 0 0.5 0.5 0 1 0.5 0.5 1 0 1 0 0.5 0.5 0 1 0 1 0 1 0 1 0 1 0 1 0 1 0 1 0 1 0 1 0 1 0 1 0 1 0 1 0 1 0 1 0 1 0 1 0 1 0 1 0 1 0 1 0 1 0 1 0 1 0 1 0 1 0 1 0 1 0 1 0 1 0 1 0 1 0 1-0.5 0.5-1 0-1 0-1 0-1 0-1 0-1 0-1 0-1 0-1 0-1 0-1 0-1 0-1 0-1 0-1 0-1 0-1 0-1 0-0.5-0.5 0-1 0-1 0-1 0-1 0-1 0-1 0-1 0-1 0-1 0-1 0-1 0-1 0-1 0-1 0-1 0-1 0-1 0-1 0-1 0-1 0-1 0-1 0-1 0-1 0-1 0-1 0-1 0-1 0-1 0-1 0-1 0-1 0-1 0-1 0.5-0.5 1 0 0.5-0.5 0-1"/>
<path d="m15 28.5q0-0.5 0.5-0.5t1 0 1 0 1 0 1 0 1 0 0.5 0.5 0 1 0 1 0.5 0.5 1 0 1 0 0.5 0.5 0 1 0 1 0 1-0.5 0.5-1 0-1 0-0.5 0.5 0.5 0.5 1 0 1 0 1 0 1 0 1 0 1 0 0.5-0.5 0-1 0-1 0.5-0.5 1 0 1 0 1 0 1 0 1 0 1 0 1 0 0.5 0.5 0 1 0 1 0.5 0.5 1 0 1 0 1 0 1 0 1 0 1 0 1 0 1 0 1 0 1 0 1 0 1 0 1 0 1 0 1 0 1 0 1 0 1 0 1 0 1 0 1 0 1 0 1 0 1 0 1 0 0.5 0.5 0 1 0.5 0.5 1 0 1 0 0.5 0.5 0 1 0 1 0.5 0.5 1 0 0.5 0.5 0 1 0 1 0 1 0 1 0.5 0.5 1 0 1 0 1 0 1 0 1 0 1 0 1 0 1 0 1 0 1 0 1 0 1 0 1 0 1 0 1 0 1 0 0.5-0.5 0-1 0-1 0-1 0-1 0.5-0.5 1 0 1 0 1 0 0.5 0.5 0 1 0 1 0.5 0.5 1 0 1 0 1 0 1 0 1 0 1 0 1 0 1 0 1 0 1 0 1 0 1 0 1 0 1 0 0.5 0.5 0 1 0 1-0.5 0.5-1 0-1 0-1 0-1 0-0.5 0.5 0 1 0 1 0 1 0 1-0.5 0.5-1 0-1 0-1 0-1 0-0.5 0.5 0 1 0 1 0 1 0 1 0 1 0 1 0 1-0.5 0.5-1 0-1 0-1 0-0.5-0.5 0-1 0-1-0.5-0.5-1 0-1 0-1 0-1 0-0.5-0.5 0-1 0-1 0-1 0-1 0-1 0.5-0.5 1 0 1 0 1 0 1 0 0.5-0.5-0.5-0.5-1 0-1 0-1 0-1 0-1 0-1 0-1 0-1 0-1 0-1 0-1 0-1 0-1 0-1 0-1 0-1 0-1 0-1 0-1 0-1 0-1 0-0.5 0.5 0 1-0.5 0.5-1 0-0.5 0.5 0 1 0 1-0.5 0.5-1 0-1 0-0.5 0.5 0 1 0 1 0 1 0 1 0 1 0 1 0 1 0 1 0 1 0 1 0 1 0 1 0 1 0 1v0.5h-11v-0.5q0-0.5 0-1t-0.5-0.5-1 0-1 0-1 0-1 0-0.5-0.5 0-1 0-1 0-1 0-1 0-1 0.5-0.5 1 0 0.5-0.5 0-1 0-1 0-1 0-1-0.5-0.5-1 0-1 0-1 0-1 0-1 0-1 0-0.5 0.5 0 1 0 1-0.5 0.5-1 0-1 0-1 0-1 0-1 0-1 0-0.5 0.5 0 1 0.5 0.5 1 0 0.5 0.5 0 1 0 1 0 1 0 1 0 1 0 1 0 1v0.5h-5v-0.5q0-0.5-0.5-0.5t-0.5-0.5 0-1 0-1 0-1-0.5-0.5-1 0-1 0-1 0-0.5 0.5 0 1 0 1-0.5 0.5-1 0-0.5 0.5 0 1v0.5h-9v-0.5q0-0.5 0-1t0-1 0.5-0.5 1 0 1 0 0.5-0.5 0-1 0-1 0.5-0.5 1 0 0.5-0.5 0-1 0-1 0-1 0-1 0-1 0-1 0-1 0-1-0.5-0.5-1 0-1 0-1 0-1 0-0.5-0.5 0-1 0-1 0-1 0-1-0.5-0.5-1 0-1 0-1 0-1 0-0.5-0.5 0-1 0-1-0.5-0.5-1 0-1 0-1 0-1 0-1 0-1 0-1 0-1 0-1 0h-0.5v-6h0.5q0.5 0 1 0t1 0 1 0 1 0 0.5-0.5 0-1 0-1 0.5-0.5 1 0 0.5-0.5-0.5-0.5-1 0-0.5-0.5 0-1-0.5-0.5-1 0-1 0-1 0-1 0h-0.5v-4h0.5q0.5 0 1 0t1 0 1 0 1 0 1 0 1 0 1 0 0.5 0.5 0 1 0.5 0.5 1 0 1 0 1 0 1 0 1 0 1 0 1 0 1 0 1 0 0.5-0.5-0.5-0.5-1 0-1 0-0.5-0.5 0-1 0-1 0-1m4.5 20.5q0.5 0 0.5-0.5t0-1-0.5-0.5-1 0-1 0-1 0-0.5 0.5 0 1 0.5 0.5 1 0 1 0 1 0m36 18q0.5 0 0.5-0.5t0-1 0-1 0-1 0-1-0.5-0.5-1 0-0.5 0.5 0 1 0 1 0 1 0 1 0.5 0.5 1 0"/>
<path d="m0 35.5v-0.5h0.5q0.5 0 1 0t1 0 1 0 1 0 0.5 0.5 0 1 0.5 0.5 1 0 0.5 0.5-0.5 0.5-1 0-0.5 0.5 0 1 0 1-0.5 0.5-1 0-1 0-1 0-1 0h-0.5v-5.5" fill-opacity="0"/>
<path d="m110 44.5q0-0.5 0.5-0.5t1 0 1 0 1 0 1 0 1 0 1 0 1 0 1 0 1 0 1 0 0.5 0.5 0 1 0.5 0.5 1 0 1 0 1 0 0.5-0.5 0-1 0.5-0.5 1 0 1 0 1 0 1 0 1 0 1 0 1 0 1 0 1 0 1 0 1 0 1 0 1 0 1 0 1 0 1 0 1 0 1 0 1 0 1 0 1 0 1 0 1 0 1 0 1 0 1 0 1 0 1 0 0.5 0.5 0 1 0 1-0.5 0.5-1 0-1 0-1 0-1 0-0.5 0.5 0 1 0 1 0 1 0 1-0.5 0.5-1 0-1 0-1 0-1 0-0.5 0.5 0 1 0 1 0 1 0 1 0 1 0 1 0 1-0.5 0.5-1 0-1 0-1 0-1 0-1 0-1 0-1 0-1 0-0.5-0.5 0-1 0-1 0-1 0-1 0-1 0-1 0-1-0.5-0.5-1 0-1 0-0.5 0.5 0 1 0 1-0.5 0.5-1 0-1 0-1 0-1 0-1 0-1 0-0.5-0.5 0-1 0-1-0.5-0.5-1 0-0.5-0.5 0-1-0.5-0.5-1 0-1 0-1 0-1 0-0.5 0.5 0 1 0 1 0 1 0 1 0 1 0 1 0.5 0.5 1 0 1 0 1 0 1 0 1 0 1 0 1 0 1 0 1 0 1 0 1 0 1 0 0.5 0.5 0 1 0 1-0.5 0.5-1 0-1 0-1 0-1 0-1 0-1 0-1 0-1 0-1 0-1 0-1 0-0.5 0.5 0 1 0 1 0 1 0 1 0.5 0.5 1 0 0.5-0.5 0.5-0.5 1 0 0.5-0.5 0-1 0.5-0.5 1 0 1 0 1 0 1 0 1 0 0.5 0.5 0 1 0 1-0.5 0.5-1 0-1 0-0.5 0.5 0 1 0 1-0.5 0.5-1 0-1 0-0.5 0.5 0 1v0.5h-16v-0.5q0-0.5 0-1t-0.5-0.5-1 0-0.5-0.5 0-1 0-1-0.5-0.5-1 0-1 0-0.5-0.5 0-1 0-1-0.5-0.5-1 0-0.5-0.5 0-1 0-1 0-1 0-1 0-1 0-1 0-1 0-1 0-1 0.5-0.5 1 0 0.5-0.5 0-1 0-1 0.5-0.5 1 0 1 0 0.5-0.5 0-1 0-1 0.5-0.5 1 0 1 0 1 0 1 0 0.5-0.5 0-1m1.5 22.5q0.5 0 0.5-0.5t0-1 0-1 0-1 0-1 0-1 0-1 0-1 0-1 0-1-0.5-0.5-1 0-1 0-1 0-1 0-1 0-1 0-1 0-1 0-0.5 0.5 0 1 0.5 0.5 1 0 1 0 0.5 0.5 0 1 0 1 0.5 0.5 1 0 0.5 0.5 0 1 0.5 0.5 1 0 1 0 0.5 0.5 0 1 0 1 0.5 0.5m0-13q0.5 0 0.5-0.5t0-1 0-1 0-1 0-1 0-1 0-1-0.5-0.5-0.5 0.5 0 1 0 1-0.5 0.5-1 0-1 0-0.5 0.5 0 1-0.5 0.5-1 0-1 0-1 0-1 0-0.5 0.5 0 1 0.5 0.5 1 0 1 0 1 0 1 0 1 0 1 0 1 0 1 0m18-5q0.5 0 0.5-0.5t0-1-0.5-0.5-1 0-1 0-1 0-0.5 0.5 0 1 0.5 0.5 1 0 1 0 1 0"/>
<path d="m161 44.5q0-0.5 0.5-0.5t1 0 1 0 1 0 1 0 1 0 1 0 1 0 1 0 1 0 1 0 0.5 0.5 0 1 0.5 0.5 1 0 1 0 1 0 0.5-0.5 0-1 0.5-0.5 1 0 1 0 1 0 0.5 0.5 0 1 0 1-0.5 0.5-1 0-0.5 0.5 0 1 0.5 0.5 1 0 0.5 0.5 0 1 0 1-0.5 0.5-1 0-1 0-1 0-1 0-1 0-0.5-0.5 0-1-0.5-0.5-1 0-1 0-1 0-0.5 0.5 0 1 0 1 0 1 0.5 0.5 1 0 1 0 1 0 1 0 1 0 1 0 1 0 1 0 1 0 1 0 1 0 1 0 0.5 0.5 0 1 0 1-0.5 0.5-1 0-1 0-1 0-1 0-1 0-1 0-1 0-1 0-1 0-1 0-1 0-1 0-0.5 0.5 0 1 0 1 0 1 0 1 0 1 0 1 0.5 0.5 1 0 1 0 1 0 0.5-0.5 0-1 0.5-0.5 1 0 0.5-0.5 0-1 0-1 0.5-0.5 1 0 1 0 1 0 1 0 1 0 1 0 0.5 0.5 0 1 0 1-0.5 0.5-1 0-1 0-0.5 0.5 0 1 0 1-0.5 0.5-1 0-0.5 0.5 0 1 0 1-0.5 0.5-1 0-1 0-0.5 0.5 0 1v0.5h-17v-0.5q0-0.5 0-1t-0.5-0.5-1 0-0.5-0.5 0-1 0-1-0.5-0.5-1 0-0.5-0.5 0-1 0-1v-0.5h-0.5q-0.5 0-1 0t-1 0-0.5-0.5 0-1 0-1 0-1 0-1 0-1 0-1 0-1 0-1 0-1 0-1 0.5-0.5 1 0 1 0 0.5-0.5 0-1 0.5-0.5 1 0 0.5-0.5 0-1 0-1 0.5-0.5 1 0 1 0 1 0 1 0 0.5-0.5 0-1m-7 17v0.5h0.5q0.5 0 1 0t1 0 1 0 1 0 0.5 0.5 0 1 0.5 0.5 1 0 1 0 0.5 0.5 0 1 0 1 0.5 0.5 0.5-0.5 0-1 0-1 0-1 0-1 0-1 0-1-0.5-0.5-1 0-1 0-1 0-1 0-1 0-1 0-1 0-1 0-0.5 0.5 0 1m8.5-4.5q0.5 0 0.5-0.5t0-1 0-1 0-1 0-1 0-1 0-1 0-1 0-1 0-1-0.5-0.5-0.5 0.5 0 1 0 1-0.5 0.5-1 0-1 0-0.5 0.5 0 1-0.5 0.5-1 0-0.5 0.5 0 1 0 1-0.5 0.5-1 0-1 0-0.5 0.5 0 1 0.5 0.5 1 0 1 0 1 0 1 0 1 0 1 0 1 0 1 0"/>
<g fill-opacity="0">
<path d="m0 47.5v-0.5h0.5q0.5 0 1 0t1 0 1 0 1 0 1 0 1 0 1 0 1 0 1 0 0.5 0.5 0 1 0 1 0.5 0.5 1 0 1 0 1 0 1 0 0.5 0.5 0 1 0 1 0 1 0 1 0.5 0.5 1 0 1 0 1 0 1 0 0.5 0.5 0 1 0 1 0 1 0 1 0 1 0 1 0 1 0 1-0.5 0.5-1 0-0.5 0.5 0 1 0 1-0.5 0.5-1 0-1 0-0.5 0.5 0 1 0 1v0.5h-15v-22.5"/>
<path d="m16 47.5q0-0.5 0.5-0.5t1 0 1 0 1 0 0.5 0.5 0 1-0.5 0.5-1 0-1 0-1 0-0.5-0.5 0-1"/>
<path d="m111 47.5q0-0.5 0.5-0.5t0.5 0.5 0 1 0 1 0 1 0 1 0 1 0 1-0.5 0.5-1 0-1 0-1 0-1 0-1 0-1 0-1 0-1 0-0.5-0.5 0-1 0.5-0.5 1 0 1 0 1 0 1 0 0.5-0.5 0-1 0.5-0.5 1 0 1 0 0.5-0.5 0-1 0-1"/>
<path d="m126 47.5q0-0.5 0.5-0.5t1 0 1 0 1 0 0.5 0.5 0 1-0.5 0.5-1 0-1 0-1 0-0.5-0.5 0-1"/>
<path d="m162 47.5q0-0.5 0.5-0.5t0.5 0.5 0 1 0 1 0 1 0 1 0 1 0 1 0 1 0 1 0 1-0.5 0.5-1 0-1 0-1 0-1 0-1 0-1 0-1 0-1 0-0.5-0.5 0-1 0.5-0.5 1 0 1 0 0.5-0.5 0-1 0-1 0.5-0.5 1 0 0.5-0.5 0-1 0.5-0.5 1 0 1 0 0.5-0.5 0-1 0-1"/>
<path d="m41 57.5q0-0.5 0.5-0.5t1 0 1 0 1 0 1 0 1 0 1 0 0.5 0.5 0 1 0 1 0 1 0 1-0.5 0.5-1 0-0.5 0.5 0 1 0 1 0 1 0 1 0 1 0.5 0.5 1 0 1 0 1 0 1 0 0.5 0.5 0 1v0.5h-15v-0.5q0-0.5 0-1t0-1 0-1 0-1 0-1 0-1 0-1-0.5-0.5-1 0-0.5-0.5 0-1 0.5-0.5 1 0 1 0 1 0 1 0 1 0 1 0 0.5-0.5 0-1 0-1"/>
<path d="m103 57.5q0-0.5 0.5-0.5t1 0 1 0 1 0 1 0 1 0 1 0 1 0 1 0 0.5 0.5 0 1 0 1 0 1 0 1 0 1 0 1 0 1 0 1 0 1-0.5 0.5-0.5-0.5 0-1 0-1-0.5-0.5-1 0-1 0-0.5-0.5 0-1-0.5-0.5-1 0-0.5-0.5 0-1 0-1-0.5-0.5-1 0-1 0-0.5-0.5 0-1"/>
<path d="m154 60.5q0-0.5 0.5-0.5t1 0 1 0 1 0 1 0 1 0 1 0 1 0 1 0 0.5 0.5 0 1 0 1 0 1 0 1 0 1 0 1-0.5 0.5-0.5-0.5 0-1 0-1-0.5-0.5-1 0-1 0-0.5-0.5 0-1-0.5-0.5-1 0-1 0-1 0-1 0h-0.5v-0.5q0-0.5 0-1"/>
<path d="m54 62.5q0-0.5 0.5-0.5t1 0 0.5 0.5 0 1 0 1 0 1 0 1-0.5 0.5-1 0-0.5-0.5 0-1 0-1 0-1 0-1"/>
<path d="m26 65.5q0-0.5 0.5-0.5t1 0 1 0 1 0 0.5 0.5 0 1 0 1 0 1 0.5 0.5 0.5 0.5v0.5h-7v-0.5q0-0.5 0-1t0.5-0.5 1 0 0.5-0.5 0-1 0-1"/>
</g>
</g>
</g>
</svg>
